PathFileType	4	(X/Y/Z)	14_1_41_p0_0-204_filt_butterworth.trc
DataRate	CameraRate	NumFrames	NumMarkers	Units	OrigDataRate	OrigDataStartFrame	OrigNumFrames
57.0	57.0	5	27	m	57.0	153	204
Frame#	Time	RHip			RKnee			RAnkle			RBigToe			RSmallToe			RHeel			LHip			LKnee			LAnkle			LBigToe			LSmallToe			LHeel			Neck			Head			Nose			RShoulder			RElbow			RWrist			RThumb			RIndex			RPinky			LShoulder			LElbow			LWrist			LThumb			LIndex			LPinky			
		X1	Y1	Z1	X2	Y2	Z2	X3	Y3	Z3	X4	Y4	Z4	X5	Y5	Z5	X6	Y6	Z6	X7	Y7	Z7	X8	Y8	Z8	X9	Y9	Z9	X10	Y10	Z10	X11	Y11	Z11	X12	Y12	Z12	X13	Y13	Z13	X14	Y14	Z14	X15	Y15	Z15	X16	Y16	Z16	X17	Y17	Z17	X18	Y18	Z18	X19	Y19	Z19	X20	Y20	Z20	X21	Y21	Z21	X22	Y22	Z22	X23	Y23	Z23	X24	Y24	Z24	X25	Y25	Z25	X26	Y26	Z26	X27	Y27	Z27	
153	2.6842105263157894	0.2954868498382077	0.6593920975691759	0.8816340324613935	0.32622879724082054	0.2171891361389716	0.8965078676655795	0.3216152660589602	-0.1884367827268258	0.8641200677866648	0.2564372562775614	-0.17763379181759786	0.6418999557102643	0.332332289632441	-0.18415227188643024	0.6766280652393392	0.3010457928271793	-0.2786278412247072	0.9547939620079418	0.0758319945620903	0.6541281225853973	0.8970012996027696	0.09223954533699216	0.2297621631249097	0.9034577126958735	0.09379317746736417	-0.16991252029028053	0.8768664643027497	0.09989099951390781	-0.17643078806451712	0.6680526031043906	0.051945072126141245	-0.2140388716529192	0.7296078906960467	0.1100415029632154	-0.24121016167815695	0.9267775139483673	0.17714650438056034	1.1522687558331206	0.7554496405690174	0.21022962385390515	1.3954153100406044	0.6872808579740199	0.19913903690682316	1.2909106760568236	0.6286234565750626	0.33824490078842073	1.0725173067215823	0.7953309526098531	0.39591300754457737	0.8169462607748766	0.7822660943724408	0.3382309834993708	0.602363198354577	0.7525946731411008	0.2770923405131723	0.5224599114872989	0.6870067438299435	0.2889976788627649	0.504207595844068	0.679892334285641	0.3217274078528316	0.49890417036318635	0.7051210715981979	0.024226553582691233	1.0685810932547173	0.8150268103854345	0.0005243872910153039	0.7971909422802481	0.8300661390950543	0.07972093395770599	0.6078538111847067	0.7202381966575846	0.15626029892105409	0.5299226489209632	0.7370555193398769	0.13202679176115675	0.4846274648794329	0.7114389795846776	0.08869190111427838	0.4761938600346993	0.720383748587929	
154	2.701754385964912	0.2957082640914125	0.6616781361537295	0.8791213176876891	0.3258014276256165	0.21639489365577194	0.8964400840986823	0.32212755473465937	-0.18858919874800378	0.8640800681892545	0.2565089815840329	-0.17709317527303822	0.6421266991286644	0.33190030475404986	-0.18509094186058703	0.6763764629147098	0.3014358907430839	-0.2786833192643089	0.9548713789930605	0.07626093328967662	0.6534430235160943	0.8964967220731052	0.09266395373827714	0.22998861632688483	0.902056826761535	0.09392638678445744	-0.17007438892347704	0.8765903774234167	0.10174350756437152	-0.1787545238223835	0.6712929945284207	0.05198748800877463	-0.2149172306003985	0.7293153653038458	0.11002061060077227	-0.2415760644202644	0.9267135519921588	0.1756583951056388	1.1598555191824804	0.7610807895252166	0.20731301875898242	1.4003545396941626	0.7016950267944029	0.19349006872726793	1.2960429666805406	0.6446180166551527	0.3361611266269522	1.0761430209441514	0.8023379608594368	0.3962886899619537	0.8225668332846261	0.7809314448451303	0.3428933849909598	0.6024421233724875	0.7588045467448925	0.28368071794049704	0.5239557600564142	0.6864612080266101	0.29632562103383203	0.5073472495589364	0.6809954401619114	0.3295068423051205	0.4999511012860763	0.7073908266202076	0.021347192886951378	1.0698706320676137	0.8238513337391231	-0.0025314840893117525	0.7994357641297297	0.8318720388059098	0.07615604063771463	0.6079370467666588	0.7214279672214016	0.14880799059069516	0.523613059026325	0.7478481532267427	0.11834002027321561	0.48265505339652515	0.714593502420324	0.07822341527141119	0.48183655498549566	0.7174980675408957	
155	2.719298245614035	0.2962112829436207	0.6636760784582464	0.8764697662385519	0.3254442846325098	0.21564830075443528	0.8960567911106132	0.32254382008343446	-0.1885519451091556	0.8639278808539878	0.2559149124673239	-0.17783444975157464	0.6439035758515254	0.33119697827936045	-0.18601226584234953	0.6761484222404752	0.30184985270902076	-0.2787498812041421	0.9549460735419477	0.07677867162459694	0.6527371130113571	0.8955587548871925	0.09309634435901895	0.23028551956897342	0.9005777989011677	0.09408321389545274	-0.170110870737608	0.8763165202966902	0.10328611385629613	-0.1807613604915355	0.6737021431671559	0.0521830140362	-0.21548632374988963	0.7290203000016979	0.11002387701965137	-0.24203600735439815	0.9266546952466185	0.17517444646375185	1.1656479496434538	0.7662481533720631	0.20445555683741692	1.4038149894901368	0.7150252602324427	0.18935171276563467	1.3009984234746874	0.6546906477750035	0.33475772894157074	1.0792999322179986	0.8072689433027465	0.3962881638772586	0.8261607678706584	0.7815007535214062	0.346647103991026	0.6032501307576771	0.7620416875499306	0.2882451261420414	0.525389551033227	0.6861415919612126	0.301619602523486	0.5093352678912018	0.6819619269077912	0.3354853383552893	0.4988796522132398	0.7118323476885331	0.019777341329624436	1.0724229035039057	0.8282225837649635	-0.00478078486075046	0.8006177688440408	0.8315490542474013	0.07324800853262735	0.6079453729385822	0.7220215601411347	0.14145080203825464	0.5204728992209954	0.7529747989548378	0.1070510129771243	0.48362175177058886	0.7136232748101965	0.07037744136690972	0.486052181718996	0.7164935798959285	
156	2.736842105263158	0.29698320434876485	0.6652409730963511	0.8736199086684892	0.325113213362211	0.21500316179853934	0.8953744173606912	0.3228315658995002	-0.18832785237430247	0.8636610506013375	0.2549329404301281	-0.17953930079223568	0.6465205517921396	0.33031019975817033	-0.18674907492832726	0.6759802311932159	0.3022477694066583	-0.27881377947133285	0.9549952914777385	0.07734108463383238	0.6519960171386304	0.8942470064660097	0.0935243214606466	0.23066295380074298	0.8990619085573586	0.0942540080834392	-0.17005354881922202	0.8760542096745261	0.10406829787949481	-0.18188019347276765	0.6745235506712277	0.052508659964052434	-0.2156852314866719	0.728775556539232	0.11008934491524944	-0.24266836698973193	0.9265724192118773	0.17548705016630003	1.1697396290327076	0.7704466549253521	0.20153811138444616	1.405931755774068	0.7267795257600661	0.18677923577171834	1.3054839392188249	0.6585229640656807	0.33393548326538924	1.081530866591309	0.810570578354691	0.39590206946870654	0.8275343225360694	0.7839342360232138	0.34947402541282746	0.6051735306460758	0.7615436663337404	0.29104047770813013	0.527139386848352	0.6859130754905809	0.30530894555827714	0.5106343139825609	0.6820468554523524	0.3398000903596623	0.49631952511696886	0.7177540497099755	0.019355641942868623	1.075630274315048	0.8285908911487194	-0.0060037088175644345	0.8007681518885933	0.8293861498183127	0.07089346395137541	0.6082568675600954	0.7218840180734976	0.13406673565011606	0.5210999482156118	0.7509259403748345	0.0991172486513984	0.4874345656086929	0.7086108999102813	0.06480552882554715	0.4887661156480999	0.7175147541382811	
157	2.754385964912281	0.297914767540508	0.6663096546227391	0.8707086166992175	0.32480689453787964	0.21449933873835375	0.8944630797194912	0.32299177576790883	-0.18795989314810063	0.8632666177454841	0.25390734076868454	-0.18167916001005793	0.6492541935145022	0.32934162999480665	-0.1871320019590026	0.6759173611176873	0.30256844428447427	-0.2788609092338203	0.9550075713712836	0.0778719313405015	0.6512289980935386	0.8928200435462406	0.09393536776905803	0.23112860029013102	0.8975548567493024	0.09442131015404161	-0.16997088301906133	0.8758083138929511	0.10389767274289693	-0.1818828586798104	0.6734807716948749	0.0528127100214687	-0.21549654013319602	0.7286229958416722	0.11022530000179398	-0.24350100479244682	0.9264630671389329	0.17612617779270062	1.1727064536432361	0.7737776611099239	0.19845719898136333	1.4073681147530652	0.7371429493272771	0.18515667064586946	1.3093520877281806	0.6586290138248981	0.3335090971535658	1.082614409078092	0.8136087989440333	0.3953260283769791	0.8272696743869083	0.7872810106797099	0.3517494128951304	0.6080158943338474	0.7578492029911721	0.29298168823582943	0.5292530275462408	0.6857098458634514	0.3080603169688628	0.5117651493135016	0.6811831270335489	0.3430251473312279	0.493314339264205	0.7236135596411786	0.019532060725002964	1.078664354230586	0.8270663081793709	-0.0063961079336457595	0.8002264114282134	0.8265224194231522	0.06885160102808585	0.6092429395136788	0.7213362865498096	0.12648630381869014	0.5248967563383262	0.7426721660086156	0.09426997813374902	0.49331033664175916	0.7010253113693848	0.06054281161841644	0.49093020937008436	0.7192624417171883	
